<svg width="52" height="52" viewBox="0 0 52 52" fill="none" xmlns="http://www.w3.org/2000/svg">
<g filter="url(#filter0_d_102_1214)">
<path d="M25.9984 43.1218C39.4167 43.1218 46.1218 34.1122 46.1218 22.9984C46.1218 11.8846 39.4167 2.875 25.9984 2.875C12.5801 2.875 5.875 11.8846 5.875 22.9984C5.875 34.1122 12.5801 43.1218 25.9984 43.1218Z" fill="url(#paint0_radial_102_1214)"/>
<path d="M25.9984 43.1218C39.4167 43.1218 46.1218 34.1122 46.1218 22.9984C46.1218 11.8846 39.4167 2.875 25.9984 2.875C12.5801 2.875 5.875 11.8846 5.875 22.9984C5.875 34.1122 12.5801 43.1218 25.9984 43.1218Z" fill="url(#paint1_radial_102_1214)"/>
<path d="M25.9984 43.1218C39.4167 43.1218 46.1218 34.1122 46.1218 22.9984C46.1218 11.8846 39.4167 2.875 25.9984 2.875C12.5801 2.875 5.875 11.8846 5.875 22.9984C5.875 34.1122 12.5801 43.1218 25.9984 43.1218Z" fill="url(#paint2_radial_102_1214)"/>
<path d="M25.9984 43.1218C39.4167 43.1218 46.1218 34.1122 46.1218 22.9984C46.1218 11.8846 39.4167 2.875 25.9984 2.875C12.5801 2.875 5.875 11.8846 5.875 22.9984C5.875 34.1122 12.5801 43.1218 25.9984 43.1218Z" fill="url(#paint3_radial_102_1214)" fill-opacity="0.6"/>
<path d="M25.9984 43.1218C39.4167 43.1218 46.1218 34.1122 46.1218 22.9984C46.1218 11.8846 39.4167 2.875 25.9984 2.875C12.5801 2.875 5.875 11.8846 5.875 22.9984C5.875 34.1122 12.5801 43.1218 25.9984 43.1218Z" fill="url(#paint4_radial_102_1214)"/>
<path d="M25.9984 43.1218C39.4167 43.1218 46.1218 34.1122 46.1218 22.9984C46.1218 11.8846 39.4167 2.875 25.9984 2.875C12.5801 2.875 5.875 11.8846 5.875 22.9984C5.875 34.1122 12.5801 43.1218 25.9984 43.1218Z" fill="url(#paint5_radial_102_1214)"/>
<path d="M25.9984 43.1218C39.4167 43.1218 46.1218 34.1122 46.1218 22.9984C46.1218 11.8846 39.4167 2.875 25.9984 2.875C12.5801 2.875 5.875 11.8846 5.875 22.9984C5.875 34.1122 12.5801 43.1218 25.9984 43.1218Z" fill="url(#paint6_radial_102_1214)"/>
<path d="M25.9984 43.1218C39.4167 43.1218 46.1218 34.1122 46.1218 22.9984C46.1218 11.8846 39.4167 2.875 25.9984 2.875C12.5801 2.875 5.875 11.8846 5.875 22.9984C5.875 34.1122 12.5801 43.1218 25.9984 43.1218Z" fill="url(#paint7_radial_102_1214)"/>
</g>
<ellipse cx="30.6637" cy="20.0433" rx="6.10119" ry="6.10119" fill="url(#paint8_radial_102_1214)"/>
<path d="M34.0044 23.4329C37.374 23.4329 40.1056 20.7013 40.1056 17.3317C40.1056 13.9621 37.374 11.2305 34.0044 11.2305C30.6348 11.2305 27.9032 13.9621 27.9032 17.3317C27.9032 20.7013 30.6348 23.4329 34.0044 23.4329Z" fill="white"/>
<path d="M34 20C35.6569 20 37 18.6569 37 17C37 15.3431 35.6569 14 34 14C32.3431 14 31 15.3431 31 17C31 18.6569 32.3431 20 34 20Z" fill="url(#paint9_linear_102_1214)"/>
<path d="M26 30C18.4329 28.1082 17 30 17 30C17 30 19.015 28.2537 26 30C34 32 35 30 35 30C35 30 32.9851 31.7463 26 30Z" fill="url(#paint10_radial_102_1214)"/>
<path d="M26 30C18.4329 28.1082 17 30 17 30C17 30 19.015 28.2537 26 30ZM26 30C34 32 35 30 35 30C35 30 32.9851 31.7463 26 30Z" stroke="url(#paint11_radial_102_1214)" stroke-width="2" stroke-linejoin="round"/>
<path d="M13.0625 18.4375C15.2188 20.5938 20.1496 20.0759 21.6875 17" stroke="url(#paint12_linear_102_1214)" stroke-width="2.875" stroke-linecap="round" stroke-linejoin="round"/>
<defs>
<filter id="filter0_d_102_1214" x="-2.75" y="-2.875" width="57.5" height="57.5" filterUnits="userSpaceOnUse" color-interpolation-filters="sRGB">
<feFlood flood-opacity="0" result="BackgroundImageFix"/>
<feColorMatrix in="SourceAlpha" type="matrix" values="0 0 0 0 0 0 0 0 0 0 0 0 0 0 0 0 0 0 127 0" result="hardAlpha"/>
<feOffset dy="2.875"/>
<feGaussianBlur stdDeviation="2.875"/>
<feComposite in2="hardAlpha" operator="out"/>
<feColorMatrix type="matrix" values="0 0 0 0 0 0 0 0 0 0 0 0 0 0 0 0 0 0 0.25 0"/>
<feBlend mode="normal" in2="BackgroundImageFix" result="effect1_dropShadow_102_1214"/>
<feBlend mode="normal" in="SourceGraphic" in2="effect1_dropShadow_102_1214" result="shape"/>
</filter>
<radialGradient id="paint0_radial_102_1214" cx="0" cy="0" r="1" gradientUnits="userSpaceOnUse" gradientTransform="translate(39.6562 12.9375) rotate(132.839) scale(53.911)">
<stop stop-color="#FFF478"/>
<stop offset="0.474827" stop-color="#FFB02E"/>
<stop offset="1" stop-color="#F70A8D"/>
</radialGradient>
<radialGradient id="paint1_radial_102_1214" cx="0" cy="0" r="1" gradientUnits="userSpaceOnUse" gradientTransform="translate(39.6563 12.9375) rotate(131.878) scale(55.9887)">
<stop stop-color="#FFF478"/>
<stop offset="0.474827" stop-color="#FFB02E"/>
<stop offset="1" stop-color="#F70A8D"/>
</radialGradient>
<radialGradient id="paint2_radial_102_1214" cx="0" cy="0" r="1" gradientUnits="userSpaceOnUse" gradientTransform="translate(26 17.9688) rotate(101.31) scale(25.6544 32.8585)">
<stop offset="0.787821" stop-color="#F59639" stop-opacity="0"/>
<stop offset="0.972509" stop-color="#FF7DCE"/>
</radialGradient>
<radialGradient id="paint3_radial_102_1214" cx="0" cy="0" r="1" gradientUnits="userSpaceOnUse" gradientTransform="translate(28.875 20.125) rotate(135) scale(58.955)">
<stop offset="0.314853" stop-opacity="0"/>
<stop offset="1"/>
</radialGradient>
<radialGradient id="paint4_radial_102_1214" cx="0" cy="0" r="1" gradientUnits="userSpaceOnUse" gradientTransform="translate(26 24.4375) rotate(77.692) scale(40.4612)">
<stop offset="0.507903" stop-color="#7D6133" stop-opacity="0"/>
<stop offset="1" stop-color="#715B32"/>
</radialGradient>
<radialGradient id="paint5_radial_102_1214" cx="0" cy="0" r="1" gradientUnits="userSpaceOnUse" gradientTransform="translate(26.7187 23.7188) rotate(55.7131) scale(19.1382 13.8723)">
<stop stop-color="#FFB849"/>
<stop offset="1" stop-color="#FFB847" stop-opacity="0"/>
</radialGradient>
<radialGradient id="paint6_radial_102_1214" cx="0" cy="0" r="1" gradientUnits="userSpaceOnUse" gradientTransform="translate(32.4687 25.875) rotate(9.86581) scale(16.7794)">
<stop stop-color="#FFA64B"/>
<stop offset="0.900412" stop-color="#FFAE46" stop-opacity="0"/>
</radialGradient>
<radialGradient id="paint7_radial_102_1214" cx="0" cy="0" r="1" gradientUnits="userSpaceOnUse" gradientTransform="translate(28.1562 21.5625) rotate(43.9708) scale(84.8886)">
<stop offset="0.185425" stop-opacity="0"/>
<stop offset="1" stop-opacity="0.4"/>
</radialGradient>
<radialGradient id="paint8_radial_102_1214" cx="0" cy="0" r="1" gradientUnits="userSpaceOnUse" gradientTransform="translate(35.4091 15.2979) rotate(135) scale(11.0252 6.22388)">
<stop stop-color="#392108"/>
<stop offset="1" stop-color="#C87928" stop-opacity="0"/>
</radialGradient>
<linearGradient id="paint9_linear_102_1214" x1="29.5" y1="13" x2="28.5" y2="20" gradientUnits="userSpaceOnUse">
<stop stop-color="#553B3E"/>
<stop offset="1" stop-color="#3D2432"/>
</linearGradient>
<radialGradient id="paint10_radial_102_1214" cx="0" cy="0" r="1" gradientUnits="userSpaceOnUse" gradientTransform="translate(26 25.7679) rotate(90) scale(4.51786 37.9501)">
<stop stop-color="#F70A8D"/>
<stop offset="1" stop-color="#89029C"/>
</radialGradient>
<radialGradient id="paint11_radial_102_1214" cx="0" cy="0" r="1" gradientUnits="userSpaceOnUse" gradientTransform="translate(26.0345 30.2857) rotate(-90) scale(1.57141 12.7372)">
<stop offset="0.34763" stop-color="#241A1A"/>
<stop offset="0.628228" stop-color="#57444A"/>
<stop offset="1" stop-color="#4E2553"/>
<stop offset="1" stop-color="#502A56"/>
</radialGradient>
<linearGradient id="paint12_linear_102_1214" x1="19.1" y1="18.0781" x2="18.762" y2="20.1062" gradientUnits="userSpaceOnUse">
<stop stop-color="#52383E"/>
<stop offset="1" stop-color="#432A35"/>
</linearGradient>
</defs>
</svg>
