<svg width="52" height="52" viewBox="0 0 52 52" fill="none" xmlns="http://www.w3.org/2000/svg">
<g filter="url(#filter0_d_2_699)">
<path d="M25.9984 43.1218C39.4167 43.1218 46.1218 34.1122 46.1218 22.9984C46.1218 11.8846 39.4167 2.875 25.9984 2.875C12.5801 2.875 5.875 11.8846 5.875 22.9984C5.875 34.1122 12.5801 43.1218 25.9984 43.1218Z" fill="url(#paint0_radial_2_699)"/>
<path d="M25.9984 43.1218C39.4167 43.1218 46.1218 34.1122 46.1218 22.9984C46.1218 11.8846 39.4167 2.875 25.9984 2.875C12.5801 2.875 5.875 11.8846 5.875 22.9984C5.875 34.1122 12.5801 43.1218 25.9984 43.1218Z" fill="url(#paint1_radial_2_699)"/>
<path d="M25.9984 43.1218C39.4167 43.1218 46.1218 34.1122 46.1218 22.9984C46.1218 11.8846 39.4167 2.875 25.9984 2.875C12.5801 2.875 5.875 11.8846 5.875 22.9984C5.875 34.1122 12.5801 43.1218 25.9984 43.1218Z" fill="url(#paint2_radial_2_699)"/>
<path d="M25.9984 43.1218C39.4167 43.1218 46.1218 34.1122 46.1218 22.9984C46.1218 11.8846 39.4167 2.875 25.9984 2.875C12.5801 2.875 5.875 11.8846 5.875 22.9984C5.875 34.1122 12.5801 43.1218 25.9984 43.1218Z" fill="url(#paint3_radial_2_699)" fill-opacity="0.6"/>
<path d="M25.9984 43.1218C39.4167 43.1218 46.1218 34.1122 46.1218 22.9984C46.1218 11.8846 39.4167 2.875 25.9984 2.875C12.5801 2.875 5.875 11.8846 5.875 22.9984C5.875 34.1122 12.5801 43.1218 25.9984 43.1218Z" fill="url(#paint4_radial_2_699)"/>
<path d="M25.9984 43.1218C39.4167 43.1218 46.1218 34.1122 46.1218 22.9984C46.1218 11.8846 39.4167 2.875 25.9984 2.875C12.5801 2.875 5.875 11.8846 5.875 22.9984C5.875 34.1122 12.5801 43.1218 25.9984 43.1218Z" fill="url(#paint5_radial_2_699)"/>
<path d="M25.9984 43.1218C39.4167 43.1218 46.1218 34.1122 46.1218 22.9984C46.1218 11.8846 39.4167 2.875 25.9984 2.875C12.5801 2.875 5.875 11.8846 5.875 22.9984C5.875 34.1122 12.5801 43.1218 25.9984 43.1218Z" fill="url(#paint6_radial_2_699)"/>
<path d="M25.9984 43.1218C39.4167 43.1218 46.1218 34.1122 46.1218 22.9984C46.1218 11.8846 39.4167 2.875 25.9984 2.875C12.5801 2.875 5.875 11.8846 5.875 22.9984C5.875 34.1122 12.5801 43.1218 25.9984 43.1218Z" fill="url(#paint7_radial_2_699)"/>
</g>
<g filter="url(#filter1_f_2_699)">
<path d="M16.5807 27.7833C15.8706 28.1383 15.0071 27.8505 14.6521 27.1404C14.297 26.4303 14.5848 25.5669 15.2949 25.2118L18.4668 23.6259H23.1253C23.1241 24.1691 22.8167 24.6653 22.3307 24.9083L16.5807 27.7833Z" fill="url(#paint8_radial_2_699)" fill-opacity="0.6" style="mix-blend-mode:multiply"/>
<path d="M16.5807 19.4685C15.8706 19.1134 15.0071 19.4013 14.6521 20.1114C14.297 20.8214 14.5848 21.6849 15.2949 22.04L18.4668 23.6259H23.1253C23.1241 23.0827 22.8167 22.5865 22.3307 22.3435L16.5807 19.4685Z" fill="url(#paint9_radial_2_699)" fill-opacity="0.6" style="mix-blend-mode:multiply"/>
</g>
<path d="M16.5807 27.1543C15.8706 27.5093 15.0071 27.2215 14.6521 26.5114C14.297 25.8013 14.5848 24.9379 15.2949 24.5828L18.4668 22.9969H23.1253C23.1241 23.5401 22.8167 24.0363 22.3307 24.2793L16.5807 27.1543Z" fill="url(#paint10_linear_2_699)"/>
<path d="M16.5807 18.8396C15.8706 18.4845 15.0071 18.7724 14.6521 19.4824C14.297 20.1925 14.5848 21.056 15.2949 21.4111L18.4668 22.997H23.1253C23.1241 22.4538 22.8167 21.9576 22.3307 21.7146L16.5807 18.8396Z" fill="url(#paint11_linear_2_699)"/>
<g filter="url(#filter2_f_2_699)">
<path d="M34.566 27.7833C35.2761 28.1383 36.1396 27.8505 36.4947 27.1404C36.8497 26.4303 36.5619 25.5669 35.8518 25.2118L32.6799 23.6259H28.0214C28.0227 24.1691 28.33 24.6653 28.816 24.9083L34.566 27.7833Z" fill="url(#paint12_radial_2_699)"/>
<path d="M34.566 19.4685C35.2761 19.1134 36.1396 19.4013 36.4947 20.1114C36.8497 20.8214 36.5619 21.6849 35.8518 22.04L32.6799 23.6259H28.0214C28.0227 23.0827 28.33 22.5865 28.816 22.3435L34.566 19.4685Z" fill="url(#paint13_radial_2_699)"/>
</g>
<path d="M35.3971 27.1543C36.1072 27.5093 36.9707 27.2215 37.3257 26.5114C37.6808 25.8013 37.3929 24.9379 36.6828 24.5828L33.511 22.9969H28.8525C28.8537 23.5401 29.1611 24.0363 29.6471 24.2793L35.3971 27.1543Z" fill="url(#paint14_linear_2_699)"/>
<path d="M35.3971 18.8396C36.1072 18.4845 36.9707 18.7724 37.3257 19.4824C37.6808 20.1925 37.3929 21.056 36.6828 21.4111L33.511 22.997H28.8525C28.8537 22.4538 29.1611 21.9576 29.6471 21.7146L35.3971 18.8396Z" fill="url(#paint15_linear_2_699)"/>
<g filter="url(#filter3_f_2_699)">
<path d="M21.5046 33.1884L24.9437 36.0662M28.8519 32.7193L32.291 35.5971" stroke="#CD6256" stroke-width="1.5" stroke-linecap="round" stroke-linejoin="round"/>
</g>
<path d="M14.2896 32.2722L17.7343 35.1547" stroke="url(#paint16_linear_2_699)" stroke-width="2" stroke-linecap="round" stroke-linejoin="round"/>
<path d="M17.7344 35.1545L21.7138 31.8062" stroke="url(#paint17_linear_2_699)" stroke-width="2" stroke-linecap="round" stroke-linejoin="round"/>
<path d="M21.8752 31.6987L26.0016 35.1551" stroke="url(#paint18_linear_2_699)" stroke-width="2" stroke-linecap="round" stroke-linejoin="round"/>
<path d="M30.1263 31.6987L26 35.1551" stroke="url(#paint19_linear_2_699)" stroke-width="2" stroke-linecap="round" stroke-linejoin="round"/>
<path d="M30.1263 31.6987L34.2527 35.1551" stroke="url(#paint20_linear_2_699)" stroke-width="2" stroke-linecap="round" stroke-linejoin="round"/>
<path d="M37.7314 32.2385L34.2669 35.1544" stroke="url(#paint21_linear_2_699)" stroke-width="2" stroke-linecap="round" stroke-linejoin="round"/>
<path d="M14.2896 32.272L17.7343 35.1545L21.8679 31.6955L26.0015 35.1545L30.1352 31.6955L34.2688 35.1545L37.7135 32.272" stroke="url(#paint22_linear_2_699)" stroke-width="2" stroke-linecap="round" stroke-linejoin="round"/>
<g filter="url(#filter4_f_2_699)">
<path d="M14.2896 32.272L17.7343 35.1545L21.8679 31.6955L26.0015 35.1545L30.1352 31.6955L34.2688 35.1545L37.7135 32.272" stroke="#694C5E" stroke-width="0.5" stroke-linecap="round" stroke-linejoin="round"/>
</g>
<defs>
<filter id="filter0_d_2_699" x="-2.75" y="-2.875" width="57.5" height="57.5" filterUnits="userSpaceOnUse" color-interpolation-filters="sRGB">
<feFlood flood-opacity="0" result="BackgroundImageFix"/>
<feColorMatrix in="SourceAlpha" type="matrix" values="0 0 0 0 0 0 0 0 0 0 0 0 0 0 0 0 0 0 127 0" result="hardAlpha"/>
<feOffset dy="2.875"/>
<feGaussianBlur stdDeviation="2.875"/>
<feComposite in2="hardAlpha" operator="out"/>
<feColorMatrix type="matrix" values="0 0 0 0 0 0 0 0 0 0 0 0 0 0 0 0 0 0 0.25 0"/>
<feBlend mode="normal" in2="BackgroundImageFix" result="effect1_dropShadow_2_699"/>
<feBlend mode="normal" in="SourceGraphic" in2="effect1_dropShadow_2_699" result="shape"/>
</filter>
<filter id="filter1_f_2_699" x="14" y="18.8164" width="9.62531" height="9.61896" filterUnits="userSpaceOnUse" color-interpolation-filters="sRGB">
<feFlood flood-opacity="0" result="BackgroundImageFix"/>
<feBlend mode="normal" in="SourceGraphic" in2="BackgroundImageFix" result="shape"/>
<feGaussianBlur stdDeviation="0.25" result="effect1_foregroundBlur_2_699"/>
</filter>
<filter id="filter2_f_2_699" x="27.5214" y="18.8164" width="9.62531" height="9.61896" filterUnits="userSpaceOnUse" color-interpolation-filters="sRGB">
<feFlood flood-opacity="0" result="BackgroundImageFix"/>
<feBlend mode="normal" in="SourceGraphic" in2="BackgroundImageFix" result="shape"/>
<feGaussianBlur stdDeviation="0.25" result="effect1_foregroundBlur_2_699"/>
</filter>
<filter id="filter3_f_2_699" x="19.2546" y="30.4693" width="15.2864" height="7.84697" filterUnits="userSpaceOnUse" color-interpolation-filters="sRGB">
<feFlood flood-opacity="0" result="BackgroundImageFix"/>
<feBlend mode="normal" in="SourceGraphic" in2="BackgroundImageFix" result="shape"/>
<feGaussianBlur stdDeviation="0.75" result="effect1_foregroundBlur_2_699"/>
</filter>
<filter id="filter4_f_2_699" x="13.2896" y="30.6955" width="25.4238" height="5.45899" filterUnits="userSpaceOnUse" color-interpolation-filters="sRGB">
<feFlood flood-opacity="0" result="BackgroundImageFix"/>
<feBlend mode="normal" in="SourceGraphic" in2="BackgroundImageFix" result="shape"/>
<feGaussianBlur stdDeviation="0.375" result="effect1_foregroundBlur_2_699"/>
</filter>
<radialGradient id="paint0_radial_2_699" cx="0" cy="0" r="1" gradientUnits="userSpaceOnUse" gradientTransform="translate(39.6562 12.9375) rotate(132.839) scale(53.911)">
<stop stop-color="#FFF478"/>
<stop offset="0.474827" stop-color="#FFB02E"/>
<stop offset="1" stop-color="#F70A8D"/>
</radialGradient>
<radialGradient id="paint1_radial_2_699" cx="0" cy="0" r="1" gradientUnits="userSpaceOnUse" gradientTransform="translate(39.6563 12.9375) rotate(131.878) scale(55.9887)">
<stop stop-color="#FFF478"/>
<stop offset="0.474827" stop-color="#FFB02E"/>
<stop offset="1" stop-color="#F70A8D"/>
</radialGradient>
<radialGradient id="paint2_radial_2_699" cx="0" cy="0" r="1" gradientUnits="userSpaceOnUse" gradientTransform="translate(26 17.9688) rotate(101.31) scale(25.6544 32.8585)">
<stop offset="0.787821" stop-color="#F59639" stop-opacity="0"/>
<stop offset="0.972509" stop-color="#FF7DCE"/>
</radialGradient>
<radialGradient id="paint3_radial_2_699" cx="0" cy="0" r="1" gradientUnits="userSpaceOnUse" gradientTransform="translate(28.875 20.125) rotate(135) scale(58.955)">
<stop offset="0.314853" stop-opacity="0"/>
<stop offset="1"/>
</radialGradient>
<radialGradient id="paint4_radial_2_699" cx="0" cy="0" r="1" gradientUnits="userSpaceOnUse" gradientTransform="translate(26 24.4375) rotate(77.692) scale(40.4612)">
<stop offset="0.507903" stop-color="#7D6133" stop-opacity="0"/>
<stop offset="1" stop-color="#715B32"/>
</radialGradient>
<radialGradient id="paint5_radial_2_699" cx="0" cy="0" r="1" gradientUnits="userSpaceOnUse" gradientTransform="translate(26.7187 23.7188) rotate(55.7131) scale(19.1382 13.8723)">
<stop stop-color="#FFB849"/>
<stop offset="1" stop-color="#FFB847" stop-opacity="0"/>
</radialGradient>
<radialGradient id="paint6_radial_2_699" cx="0" cy="0" r="1" gradientUnits="userSpaceOnUse" gradientTransform="translate(32.4687 25.875) rotate(9.86581) scale(16.7794)">
<stop stop-color="#FFA64B"/>
<stop offset="0.900412" stop-color="#FFAE46" stop-opacity="0"/>
</radialGradient>
<radialGradient id="paint7_radial_2_699" cx="0" cy="0" r="1" gradientUnits="userSpaceOnUse" gradientTransform="translate(28.1562 21.5625) rotate(43.9708) scale(84.8886)">
<stop offset="0.185425" stop-opacity="0"/>
<stop offset="1" stop-opacity="0.4"/>
</radialGradient>
<radialGradient id="paint8_radial_2_699" cx="0" cy="0" r="1" gradientUnits="userSpaceOnUse" gradientTransform="translate(17.0605 19.3164) rotate(110.225) scale(10.9152 14.2662)">
<stop stop-color="#9F5E0F"/>
<stop offset="0.889024" stop-color="#9F5E0F" stop-opacity="0"/>
</radialGradient>
<radialGradient id="paint9_radial_2_699" cx="0" cy="0" r="1" gradientUnits="userSpaceOnUse" gradientTransform="translate(17.0605 19.3164) rotate(110.225) scale(10.9152 14.2662)">
<stop stop-color="#9F5E0F"/>
<stop offset="0.889024" stop-color="#9F5E0F" stop-opacity="0"/>
</radialGradient>
<linearGradient id="paint10_linear_2_699" x1="18.2064" y1="28.365" x2="14.5" y2="20.6834" gradientUnits="userSpaceOnUse">
<stop offset="0.24955" stop-color="#482641"/>
<stop offset="0.406361" stop-color="#503A4A"/>
<stop offset="0.511203" stop-color="#482641"/>
</linearGradient>
<linearGradient id="paint11_linear_2_699" x1="15.7357" y1="23.1991" x2="19.1722" y2="16.4608" gradientUnits="userSpaceOnUse">
<stop offset="0.24955" stop-color="#482641"/>
<stop offset="0.406361" stop-color="#503A4A"/>
<stop offset="0.511203" stop-color="#482641"/>
</linearGradient>
<radialGradient id="paint12_radial_2_699" cx="0" cy="0" r="1" gradientUnits="userSpaceOnUse" gradientTransform="translate(41.5654 29.3789) rotate(-135.995) scale(19.2046 25.1004)">
<stop stop-color="#E9830A"/>
<stop offset="0.801655" stop-color="#F08B13" stop-opacity="0"/>
</radialGradient>
<radialGradient id="paint13_radial_2_699" cx="0" cy="0" r="1" gradientUnits="userSpaceOnUse" gradientTransform="translate(41.5654 29.3789) rotate(-135.995) scale(19.2046 25.1004)">
<stop stop-color="#E9830A"/>
<stop offset="0.801655" stop-color="#F08B13" stop-opacity="0"/>
</radialGradient>
<linearGradient id="paint14_linear_2_699" x1="33.7714" y1="28.365" x2="37.4778" y2="20.6834" gradientUnits="userSpaceOnUse">
<stop offset="0.24955" stop-color="#482641"/>
<stop offset="0.406361" stop-color="#503A4A"/>
<stop offset="0.511203" stop-color="#482641"/>
</linearGradient>
<linearGradient id="paint15_linear_2_699" x1="36.2421" y1="23.1991" x2="32.8056" y2="16.4608" gradientUnits="userSpaceOnUse">
<stop offset="0.24955" stop-color="#482641"/>
<stop offset="0.406361" stop-color="#503A4A"/>
<stop offset="0.511203" stop-color="#482641"/>
</linearGradient>
<linearGradient id="paint16_linear_2_699" x1="13.6833" y1="34.2384" x2="19.1629" y2="27.6901" gradientUnits="userSpaceOnUse">
<stop stop-color="#482641"/>
<stop offset="0.322917" stop-color="#57434E"/>
<stop offset="0.4375" stop-color="#483637"/>
</linearGradient>
<linearGradient id="paint17_linear_2_699" x1="19.8838" y1="35.4994" x2="15.6786" y2="30.3685" gradientUnits="userSpaceOnUse">
<stop offset="0.0197505" stop-color="#482641"/>
<stop offset="0.322917" stop-color="#57434E"/>
<stop offset="0.46422" stop-color="#483637"/>
</linearGradient>
<linearGradient id="paint18_linear_2_699" x1="21.5881" y1="33.6238" x2="25.9132" y2="28.5615" gradientUnits="userSpaceOnUse">
<stop offset="0.0197505" stop-color="#482641"/>
<stop offset="0.322917" stop-color="#57434E"/>
<stop offset="0.46422" stop-color="#483637"/>
</linearGradient>
<linearGradient id="paint19_linear_2_699" x1="30.4135" y1="33.6238" x2="26.0884" y2="28.5615" gradientUnits="userSpaceOnUse">
<stop offset="0.0197505" stop-color="#482641"/>
<stop offset="0.322917" stop-color="#57434E"/>
<stop offset="0.46422" stop-color="#483637"/>
</linearGradient>
<linearGradient id="paint20_linear_2_699" x1="29.8392" y1="33.6238" x2="34.1643" y2="28.5615" gradientUnits="userSpaceOnUse">
<stop offset="0.0197505" stop-color="#482641"/>
<stop offset="0.322917" stop-color="#57434E"/>
<stop offset="0.46422" stop-color="#483637"/>
</linearGradient>
<linearGradient id="paint21_linear_2_699" x1="38.6804" y1="33.6231" x2="34.3553" y2="28.5608" gradientUnits="userSpaceOnUse">
<stop offset="0.0197505" stop-color="#482641"/>
<stop offset="0.322917" stop-color="#57434E"/>
<stop offset="0.46422" stop-color="#483637"/>
</linearGradient>
<linearGradient id="paint22_linear_2_699" x1="26.0015" y1="36.7425" x2="26.0015" y2="34.5086" gradientUnits="userSpaceOnUse">
<stop stop-color="#53265E"/>
<stop offset="1" stop-color="#53265E" stop-opacity="0"/>
</linearGradient>
</defs>
</svg>
