<svg width="52" height="52" viewBox="0 0 52 52" fill="none" xmlns="http://www.w3.org/2000/svg">
<g filter="url(#filter0_d_7_160)">
<path d="M25.9984 43.1218C39.4167 43.1218 46.1218 34.1122 46.1218 22.9984C46.1218 11.8846 39.4167 2.875 25.9984 2.875C12.5801 2.875 5.875 11.8846 5.875 22.9984C5.875 34.1122 12.5801 43.1218 25.9984 43.1218Z" fill="url(#paint0_radial_7_160)"/>
<path d="M25.9984 43.1218C39.4167 43.1218 46.1218 34.1122 46.1218 22.9984C46.1218 11.8846 39.4167 2.875 25.9984 2.875C12.5801 2.875 5.875 11.8846 5.875 22.9984C5.875 34.1122 12.5801 43.1218 25.9984 43.1218Z" fill="url(#paint1_radial_7_160)"/>
<path d="M25.9984 43.1218C39.4167 43.1218 46.1218 34.1122 46.1218 22.9984C46.1218 11.8846 39.4167 2.875 25.9984 2.875C12.5801 2.875 5.875 11.8846 5.875 22.9984C5.875 34.1122 12.5801 43.1218 25.9984 43.1218Z" fill="url(#paint2_radial_7_160)"/>
<path d="M25.9984 43.1218C39.4167 43.1218 46.1218 34.1122 46.1218 22.9984C46.1218 11.8846 39.4167 2.875 25.9984 2.875C12.5801 2.875 5.875 11.8846 5.875 22.9984C5.875 34.1122 12.5801 43.1218 25.9984 43.1218Z" fill="url(#paint3_radial_7_160)" fill-opacity="0.6"/>
<path d="M25.9984 43.1218C39.4167 43.1218 46.1218 34.1122 46.1218 22.9984C46.1218 11.8846 39.4167 2.875 25.9984 2.875C12.5801 2.875 5.875 11.8846 5.875 22.9984C5.875 34.1122 12.5801 43.1218 25.9984 43.1218Z" fill="url(#paint4_radial_7_160)"/>
<path d="M25.9984 43.1218C39.4167 43.1218 46.1218 34.1122 46.1218 22.9984C46.1218 11.8846 39.4167 2.875 25.9984 2.875C12.5801 2.875 5.875 11.8846 5.875 22.9984C5.875 34.1122 12.5801 43.1218 25.9984 43.1218Z" fill="url(#paint5_radial_7_160)"/>
<path d="M25.9984 43.1218C39.4167 43.1218 46.1218 34.1122 46.1218 22.9984C46.1218 11.8846 39.4167 2.875 25.9984 2.875C12.5801 2.875 5.875 11.8846 5.875 22.9984C5.875 34.1122 12.5801 43.1218 25.9984 43.1218Z" fill="url(#paint6_radial_7_160)"/>
<path d="M25.9984 43.1218C39.4167 43.1218 46.1218 34.1122 46.1218 22.9984C46.1218 11.8846 39.4167 2.875 25.9984 2.875C12.5801 2.875 5.875 11.8846 5.875 22.9984C5.875 34.1122 12.5801 43.1218 25.9984 43.1218Z" fill="url(#paint7_radial_7_160)"/>
</g>
<circle cx="15.962" cy="19.2919" r="6.71786" fill="url(#paint8_radial_7_160)"/>
<path d="M17.9775 23.3226C21.3166 23.3226 24.0235 20.6157 24.0235 17.2765C24.0235 13.9374 21.3166 11.2305 17.9775 11.2305C14.6383 11.2305 11.9314 13.9374 11.9314 17.2765C11.9314 20.6157 14.6383 23.3226 17.9775 23.3226Z" fill="white"/>
<path d="M18.8125 21.5625C21.1942 21.5625 23.125 19.6317 23.125 17.25C23.125 14.8683 21.1942 12.9375 18.8125 12.9375C16.4308 12.9375 14.5 14.8683 14.5 17.25C14.5 19.6317 16.4308 21.5625 18.8125 21.5625Z" fill="url(#paint9_linear_7_160)"/>
<ellipse cx="30.6637" cy="20.0433" rx="6.10119" ry="6.10119" fill="url(#paint10_radial_7_160)"/>
<path d="M34.0044 23.4329C37.374 23.4329 40.1056 20.7013 40.1056 17.3317C40.1056 13.9621 37.374 11.2305 34.0044 11.2305C30.6348 11.2305 27.9032 13.9621 27.9032 17.3317C27.9032 20.7013 30.6348 23.4329 34.0044 23.4329Z" fill="white"/>
<path d="M33.1875 21.5625C35.5692 21.5625 37.5 19.6317 37.5 17.25C37.5 14.8683 35.5692 12.9375 33.1875 12.9375C30.8058 12.9375 28.875 14.8683 28.875 17.25C28.875 19.6317 30.8058 21.5625 33.1875 21.5625Z" fill="url(#paint11_linear_7_160)"/>
<path d="M26 30.5C19.5 30.5 18.5 27 18.5 27C18.5 27 20 30 26 30C32 30 33.5 27 33.5 27C33.5 27 32.5192 30.5 26 30.5Z" fill="url(#paint12_radial_7_160)" stroke="url(#paint13_radial_7_160)" stroke-width="2" stroke-linejoin="round"/>
<defs>
<filter id="filter0_d_7_160" x="-2.75" y="-2.875" width="57.5" height="57.5" filterUnits="userSpaceOnUse" color-interpolation-filters="sRGB">
<feFlood flood-opacity="0" result="BackgroundImageFix"/>
<feColorMatrix in="SourceAlpha" type="matrix" values="0 0 0 0 0 0 0 0 0 0 0 0 0 0 0 0 0 0 127 0" result="hardAlpha"/>
<feOffset dy="2.875"/>
<feGaussianBlur stdDeviation="2.875"/>
<feComposite in2="hardAlpha" operator="out"/>
<feColorMatrix type="matrix" values="0 0 0 0 0 0 0 0 0 0 0 0 0 0 0 0 0 0 0.25 0"/>
<feBlend mode="normal" in2="BackgroundImageFix" result="effect1_dropShadow_7_160"/>
<feBlend mode="normal" in="SourceGraphic" in2="effect1_dropShadow_7_160" result="shape"/>
</filter>
<radialGradient id="paint0_radial_7_160" cx="0" cy="0" r="1" gradientUnits="userSpaceOnUse" gradientTransform="translate(39.6562 12.9375) rotate(132.839) scale(53.911)">
<stop stop-color="#FFF478"/>
<stop offset="0.474827" stop-color="#FFB02E"/>
<stop offset="1" stop-color="#F70A8D"/>
</radialGradient>
<radialGradient id="paint1_radial_7_160" cx="0" cy="0" r="1" gradientUnits="userSpaceOnUse" gradientTransform="translate(39.6563 12.9375) rotate(131.878) scale(55.9887)">
<stop stop-color="#FFF478"/>
<stop offset="0.474827" stop-color="#FFB02E"/>
<stop offset="1" stop-color="#F70A8D"/>
</radialGradient>
<radialGradient id="paint2_radial_7_160" cx="0" cy="0" r="1" gradientUnits="userSpaceOnUse" gradientTransform="translate(26 17.9688) rotate(101.31) scale(25.6544 32.8585)">
<stop offset="0.787821" stop-color="#F59639" stop-opacity="0"/>
<stop offset="0.972509" stop-color="#FF7DCE"/>
</radialGradient>
<radialGradient id="paint3_radial_7_160" cx="0" cy="0" r="1" gradientUnits="userSpaceOnUse" gradientTransform="translate(28.875 20.125) rotate(135) scale(58.955)">
<stop offset="0.314853" stop-opacity="0"/>
<stop offset="1"/>
</radialGradient>
<radialGradient id="paint4_radial_7_160" cx="0" cy="0" r="1" gradientUnits="userSpaceOnUse" gradientTransform="translate(26 24.4375) rotate(77.692) scale(40.4612)">
<stop offset="0.507903" stop-color="#7D6133" stop-opacity="0"/>
<stop offset="1" stop-color="#715B32"/>
</radialGradient>
<radialGradient id="paint5_radial_7_160" cx="0" cy="0" r="1" gradientUnits="userSpaceOnUse" gradientTransform="translate(26.7187 23.7188) rotate(55.7131) scale(19.1382 13.8723)">
<stop stop-color="#FFB849"/>
<stop offset="1" stop-color="#FFB847" stop-opacity="0"/>
</radialGradient>
<radialGradient id="paint6_radial_7_160" cx="0" cy="0" r="1" gradientUnits="userSpaceOnUse" gradientTransform="translate(32.4687 25.875) rotate(9.86581) scale(16.7794)">
<stop stop-color="#FFA64B"/>
<stop offset="0.900412" stop-color="#FFAE46" stop-opacity="0"/>
</radialGradient>
<radialGradient id="paint7_radial_7_160" cx="0" cy="0" r="1" gradientUnits="userSpaceOnUse" gradientTransform="translate(28.1562 21.5625) rotate(43.9708) scale(84.8886)">
<stop offset="0.185425" stop-opacity="0"/>
<stop offset="1" stop-opacity="0.4"/>
</radialGradient>
<radialGradient id="paint8_radial_7_160" cx="0" cy="0" r="1" gradientUnits="userSpaceOnUse" gradientTransform="translate(21.187 14.0669) rotate(135) scale(13.0896 6.77472)">
<stop stop-color="#392108"/>
<stop offset="1" stop-color="#C87928" stop-opacity="0"/>
</radialGradient>
<linearGradient id="paint9_linear_7_160" x1="26.7188" y1="11.5" x2="25.2812" y2="21.5625" gradientUnits="userSpaceOnUse">
<stop stop-color="#553B3E"/>
<stop offset="1" stop-color="#3D2432"/>
</linearGradient>
<radialGradient id="paint10_radial_7_160" cx="0" cy="0" r="1" gradientUnits="userSpaceOnUse" gradientTransform="translate(35.4091 15.2979) rotate(135) scale(11.0252 6.22388)">
<stop stop-color="#392108"/>
<stop offset="1" stop-color="#C87928" stop-opacity="0"/>
</radialGradient>
<linearGradient id="paint11_linear_7_160" x1="26.7188" y1="11.5" x2="25.2813" y2="21.5625" gradientUnits="userSpaceOnUse">
<stop stop-color="#553B3E"/>
<stop offset="1" stop-color="#3D2432"/>
</linearGradient>
<radialGradient id="paint12_radial_7_160" cx="0" cy="0" r="1" gradientUnits="userSpaceOnUse" gradientTransform="translate(26 41.8125) rotate(-90) scale(15.8125 31.625)">
<stop stop-color="#F70A8D"/>
<stop offset="1" stop-color="#89029C"/>
</radialGradient>
<radialGradient id="paint13_radial_7_160" cx="0" cy="0" r="1" gradientUnits="userSpaceOnUse" gradientTransform="translate(26.0287 26.0001) rotate(90) scale(5.49992 10.6143)">
<stop offset="0.34763" stop-color="#241A1A"/>
<stop offset="0.628228" stop-color="#57444A"/>
<stop offset="1" stop-color="#4E2553"/>
<stop offset="1" stop-color="#502A56"/>
</radialGradient>
</defs>
</svg>
