<svg width="52" height="52" viewBox="0 0 52 52" fill="none" xmlns="http://www.w3.org/2000/svg">
<g filter="url(#filter0_d_2_544)">
<path d="M25.9984 43.1218C39.4167 43.1218 46.1218 34.1122 46.1218 22.9984C46.1218 11.8846 39.4167 2.875 25.9984 2.875C12.5801 2.875 5.875 11.8846 5.875 22.9984C5.875 34.1122 12.5801 43.1218 25.9984 43.1218Z" fill="url(#paint0_radial_2_544)"/>
<path d="M25.9984 43.1218C39.4167 43.1218 46.1218 34.1122 46.1218 22.9984C46.1218 11.8846 39.4167 2.875 25.9984 2.875C12.5801 2.875 5.875 11.8846 5.875 22.9984C5.875 34.1122 12.5801 43.1218 25.9984 43.1218Z" fill="url(#paint1_radial_2_544)"/>
<path d="M25.9984 43.1218C39.4167 43.1218 46.1218 34.1122 46.1218 22.9984C46.1218 11.8846 39.4167 2.875 25.9984 2.875C12.5801 2.875 5.875 11.8846 5.875 22.9984C5.875 34.1122 12.5801 43.1218 25.9984 43.1218Z" fill="url(#paint2_radial_2_544)"/>
<path d="M25.9984 43.1218C39.4167 43.1218 46.1218 34.1122 46.1218 22.9984C46.1218 11.8846 39.4167 2.875 25.9984 2.875C12.5801 2.875 5.875 11.8846 5.875 22.9984C5.875 34.1122 12.5801 43.1218 25.9984 43.1218Z" fill="url(#paint3_radial_2_544)" fill-opacity="0.6"/>
<path d="M25.9984 43.1218C39.4167 43.1218 46.1218 34.1122 46.1218 22.9984C46.1218 11.8846 39.4167 2.875 25.9984 2.875C12.5801 2.875 5.875 11.8846 5.875 22.9984C5.875 34.1122 12.5801 43.1218 25.9984 43.1218Z" fill="url(#paint4_radial_2_544)"/>
<path d="M25.9984 43.1218C39.4167 43.1218 46.1218 34.1122 46.1218 22.9984C46.1218 11.8846 39.4167 2.875 25.9984 2.875C12.5801 2.875 5.875 11.8846 5.875 22.9984C5.875 34.1122 12.5801 43.1218 25.9984 43.1218Z" fill="url(#paint5_radial_2_544)"/>
<path d="M25.9984 43.1218C39.4167 43.1218 46.1218 34.1122 46.1218 22.9984C46.1218 11.8846 39.4167 2.875 25.9984 2.875C12.5801 2.875 5.875 11.8846 5.875 22.9984C5.875 34.1122 12.5801 43.1218 25.9984 43.1218Z" fill="url(#paint6_radial_2_544)"/>
<path d="M25.9984 43.1218C39.4167 43.1218 46.1218 34.1122 46.1218 22.9984C46.1218 11.8846 39.4167 2.875 25.9984 2.875C12.5801 2.875 5.875 11.8846 5.875 22.9984C5.875 34.1122 12.5801 43.1218 25.9984 43.1218Z" fill="url(#paint7_radial_2_544)"/>
</g>
<path d="M13.0625 24.4375C15.2188 26.5938 20.1496 26.0759 21.6875 23" stroke="url(#paint8_linear_2_544)" stroke-width="2.875" stroke-linecap="round" stroke-linejoin="round"/>
<path d="M38.9375 24.4375C36.7812 26.5938 31.8504 26.0759 30.3125 23" stroke="url(#paint9_linear_2_544)" stroke-width="2.875" stroke-linecap="round" stroke-linejoin="round"/>
<path fill-rule="evenodd" clip-rule="evenodd" d="M32.1029 35.5058C28.7269 32.1545 23.2675 32.1662 19.9027 35.5433C19.3423 36.1057 18.4321 36.1074 17.8697 35.547C17.3073 34.9867 17.3057 34.0765 17.866 33.5141C22.3499 29.0138 29.6268 28.9967 34.1283 33.4654C34.6918 34.0247 34.6951 34.9349 34.1358 35.4983C33.5765 36.0618 32.6663 36.0651 32.1029 35.5058Z" fill="url(#paint10_linear_2_544)"/>
<defs>
<filter id="filter0_d_2_544" x="-2.75" y="-2.875" width="57.5" height="57.5" filterUnits="userSpaceOnUse" color-interpolation-filters="sRGB">
<feFlood flood-opacity="0" result="BackgroundImageFix"/>
<feColorMatrix in="SourceAlpha" type="matrix" values="0 0 0 0 0 0 0 0 0 0 0 0 0 0 0 0 0 0 127 0" result="hardAlpha"/>
<feOffset dy="2.875"/>
<feGaussianBlur stdDeviation="2.875"/>
<feComposite in2="hardAlpha" operator="out"/>
<feColorMatrix type="matrix" values="0 0 0 0 0 0 0 0 0 0 0 0 0 0 0 0 0 0 0.25 0"/>
<feBlend mode="normal" in2="BackgroundImageFix" result="effect1_dropShadow_2_544"/>
<feBlend mode="normal" in="SourceGraphic" in2="effect1_dropShadow_2_544" result="shape"/>
</filter>
<radialGradient id="paint0_radial_2_544" cx="0" cy="0" r="1" gradientUnits="userSpaceOnUse" gradientTransform="translate(39.6562 12.9375) rotate(132.839) scale(53.911)">
<stop stop-color="#FFF478"/>
<stop offset="0.474827" stop-color="#FFB02E"/>
<stop offset="1" stop-color="#F70A8D"/>
</radialGradient>
<radialGradient id="paint1_radial_2_544" cx="0" cy="0" r="1" gradientUnits="userSpaceOnUse" gradientTransform="translate(39.6563 12.9375) rotate(131.878) scale(55.9887)">
<stop stop-color="#FFF478"/>
<stop offset="0.474827" stop-color="#FFB02E"/>
<stop offset="1" stop-color="#F70A8D"/>
</radialGradient>
<radialGradient id="paint2_radial_2_544" cx="0" cy="0" r="1" gradientUnits="userSpaceOnUse" gradientTransform="translate(26 17.9688) rotate(101.31) scale(25.6544 32.8585)">
<stop offset="0.787821" stop-color="#F59639" stop-opacity="0"/>
<stop offset="0.972509" stop-color="#FF7DCE"/>
</radialGradient>
<radialGradient id="paint3_radial_2_544" cx="0" cy="0" r="1" gradientUnits="userSpaceOnUse" gradientTransform="translate(28.875 20.125) rotate(135) scale(58.955)">
<stop offset="0.314853" stop-opacity="0"/>
<stop offset="1"/>
</radialGradient>
<radialGradient id="paint4_radial_2_544" cx="0" cy="0" r="1" gradientUnits="userSpaceOnUse" gradientTransform="translate(26 24.4375) rotate(77.692) scale(40.4612)">
<stop offset="0.507903" stop-color="#7D6133" stop-opacity="0"/>
<stop offset="1" stop-color="#715B32"/>
</radialGradient>
<radialGradient id="paint5_radial_2_544" cx="0" cy="0" r="1" gradientUnits="userSpaceOnUse" gradientTransform="translate(26.7187 23.7188) rotate(55.7131) scale(19.1382 13.8723)">
<stop stop-color="#FFB849"/>
<stop offset="1" stop-color="#FFB847" stop-opacity="0"/>
</radialGradient>
<radialGradient id="paint6_radial_2_544" cx="0" cy="0" r="1" gradientUnits="userSpaceOnUse" gradientTransform="translate(32.4687 25.875) rotate(9.86581) scale(16.7794)">
<stop stop-color="#FFA64B"/>
<stop offset="0.900412" stop-color="#FFAE46" stop-opacity="0"/>
</radialGradient>
<radialGradient id="paint7_radial_2_544" cx="0" cy="0" r="1" gradientUnits="userSpaceOnUse" gradientTransform="translate(28.1562 21.5625) rotate(43.9708) scale(84.8886)">
<stop offset="0.185425" stop-opacity="0"/>
<stop offset="1" stop-opacity="0.4"/>
</radialGradient>
<linearGradient id="paint8_linear_2_544" x1="19.1" y1="24.0781" x2="18.762" y2="26.1062" gradientUnits="userSpaceOnUse">
<stop stop-color="#52383E"/>
<stop offset="1" stop-color="#432A35"/>
</linearGradient>
<linearGradient id="paint9_linear_2_544" x1="32.9" y1="24.0781" x2="33.238" y2="26.1062" gradientUnits="userSpaceOnUse">
<stop stop-color="#52383E"/>
<stop offset="1" stop-color="#432A35"/>
</linearGradient>
<linearGradient id="paint10_linear_2_544" x1="26" y1="30.0814" x2="26" y2="33.0463" gradientUnits="userSpaceOnUse">
<stop stop-color="#4F3C43"/>
<stop offset="1" stop-color="#512756"/>
</linearGradient>
</defs>
</svg>
