<svg width="52" height="52" viewBox="0 0 52 52" fill="none" xmlns="http://www.w3.org/2000/svg">
<g filter="url(#filter0_d_7_161)">
<path d="M25.9984 43.1218C39.4167 43.1218 46.1218 34.1122 46.1218 22.9984C46.1218 11.8846 39.4167 2.875 25.9984 2.875C12.5801 2.875 5.875 11.8846 5.875 22.9984C5.875 34.1122 12.5801 43.1218 25.9984 43.1218Z" fill="url(#paint0_radial_7_161)"/>
<path d="M25.9984 43.1218C39.4167 43.1218 46.1218 34.1122 46.1218 22.9984C46.1218 11.8846 39.4167 2.875 25.9984 2.875C12.5801 2.875 5.875 11.8846 5.875 22.9984C5.875 34.1122 12.5801 43.1218 25.9984 43.1218Z" fill="url(#paint1_radial_7_161)"/>
<path d="M25.9984 43.1218C39.4167 43.1218 46.1218 34.1122 46.1218 22.9984C46.1218 11.8846 39.4167 2.875 25.9984 2.875C12.5801 2.875 5.875 11.8846 5.875 22.9984C5.875 34.1122 12.5801 43.1218 25.9984 43.1218Z" fill="url(#paint2_radial_7_161)"/>
<path d="M25.9984 43.1218C39.4167 43.1218 46.1218 34.1122 46.1218 22.9984C46.1218 11.8846 39.4167 2.875 25.9984 2.875C12.5801 2.875 5.875 11.8846 5.875 22.9984C5.875 34.1122 12.5801 43.1218 25.9984 43.1218Z" fill="url(#paint3_radial_7_161)" fill-opacity="0.6"/>
<path d="M25.9984 43.1218C39.4167 43.1218 46.1218 34.1122 46.1218 22.9984C46.1218 11.8846 39.4167 2.875 25.9984 2.875C12.5801 2.875 5.875 11.8846 5.875 22.9984C5.875 34.1122 12.5801 43.1218 25.9984 43.1218Z" fill="url(#paint4_radial_7_161)"/>
<path d="M25.9984 43.1218C39.4167 43.1218 46.1218 34.1122 46.1218 22.9984C46.1218 11.8846 39.4167 2.875 25.9984 2.875C12.5801 2.875 5.875 11.8846 5.875 22.9984C5.875 34.1122 12.5801 43.1218 25.9984 43.1218Z" fill="url(#paint5_radial_7_161)"/>
<path d="M25.9984 43.1218C39.4167 43.1218 46.1218 34.1122 46.1218 22.9984C46.1218 11.8846 39.4167 2.875 25.9984 2.875C12.5801 2.875 5.875 11.8846 5.875 22.9984C5.875 34.1122 12.5801 43.1218 25.9984 43.1218Z" fill="url(#paint6_radial_7_161)"/>
<path d="M25.9984 43.1218C39.4167 43.1218 46.1218 34.1122 46.1218 22.9984C46.1218 11.8846 39.4167 2.875 25.9984 2.875C12.5801 2.875 5.875 11.8846 5.875 22.9984C5.875 34.1122 12.5801 43.1218 25.9984 43.1218Z" fill="url(#paint7_radial_7_161)"/>
</g>
<ellipse cx="14.5" cy="17.9688" rx="7.1875" ry="6.46875" fill="url(#paint8_radial_7_161)"/>
<path d="M24.5625 15.0938C24.5625 17.1406 23.6118 18.9654 22.128 20.1507C20.9735 19.7634 19.4979 19.4062 18.0938 19.4062C16.6896 19.4062 15.214 19.7634 14.0595 20.1507C12.5757 18.9654 11.625 17.1406 11.625 15.0938C11.625 11.5212 14.5212 8.625 18.0938 8.625C21.6663 8.625 24.5625 11.5212 24.5625 15.0938Z" fill="white"/>
<path d="M18.8125 18.6875C21.1942 18.6875 23.125 16.7567 23.125 14.375C23.125 11.9933 21.1942 10.0625 18.8125 10.0625C16.4308 10.0625 14.5 11.9933 14.5 14.375C14.5 16.7567 16.4308 18.6875 18.8125 18.6875Z" fill="url(#paint9_linear_7_161)"/>
<circle cx="30.3125" cy="17.25" r="5.75" fill="url(#paint10_radial_7_161)"/>
<path d="M40.375 15.0938C40.375 17.1406 39.4243 18.9654 37.9405 20.1507C36.786 19.7634 35.3104 19.4062 33.9063 19.4062C32.5021 19.4062 31.0265 19.7634 29.872 20.1507C28.3882 18.9654 27.4375 17.1406 27.4375 15.0938C27.4375 11.5212 30.3337 8.625 33.9063 8.625C37.4788 8.625 40.375 11.5212 40.375 15.0938Z" fill="white"/>
<path d="M33.1875 18.6875C35.5692 18.6875 37.5 16.7567 37.5 14.375C37.5 11.9933 35.5692 10.0625 33.1875 10.0625C30.8058 10.0625 28.875 11.9933 28.875 14.375C28.875 16.7567 30.8058 18.6875 33.1875 18.6875Z" fill="url(#paint11_linear_7_161)"/>
<path d="M26 36C13 36 13 23 13 23H26H39C39 23 38.75 36 26 36Z" fill="url(#paint12_radial_7_161)"/>
<path d="M15 24V23H37V24C37 24.5523 36.5523 25 36 25H16C15.4477 25 15 24.5523 15 24Z" fill="url(#paint13_linear_7_161)"/>
<defs>
<filter id="filter0_d_7_161" x="-2.75" y="-2.875" width="57.5" height="57.5" filterUnits="userSpaceOnUse" color-interpolation-filters="sRGB">
<feFlood flood-opacity="0" result="BackgroundImageFix"/>
<feColorMatrix in="SourceAlpha" type="matrix" values="0 0 0 0 0 0 0 0 0 0 0 0 0 0 0 0 0 0 127 0" result="hardAlpha"/>
<feOffset dy="2.875"/>
<feGaussianBlur stdDeviation="2.875"/>
<feComposite in2="hardAlpha" operator="out"/>
<feColorMatrix type="matrix" values="0 0 0 0 0 0 0 0 0 0 0 0 0 0 0 0 0 0 0.25 0"/>
<feBlend mode="normal" in2="BackgroundImageFix" result="effect1_dropShadow_7_161"/>
<feBlend mode="normal" in="SourceGraphic" in2="effect1_dropShadow_7_161" result="shape"/>
</filter>
<radialGradient id="paint0_radial_7_161" cx="0" cy="0" r="1" gradientUnits="userSpaceOnUse" gradientTransform="translate(39.6562 12.9375) rotate(132.839) scale(53.911)">
<stop stop-color="#FFF478"/>
<stop offset="0.474827" stop-color="#FFB02E"/>
<stop offset="1" stop-color="#F70A8D"/>
</radialGradient>
<radialGradient id="paint1_radial_7_161" cx="0" cy="0" r="1" gradientUnits="userSpaceOnUse" gradientTransform="translate(39.6563 12.9375) rotate(131.878) scale(55.9887)">
<stop stop-color="#FFF478"/>
<stop offset="0.474827" stop-color="#FFB02E"/>
<stop offset="1" stop-color="#F70A8D"/>
</radialGradient>
<radialGradient id="paint2_radial_7_161" cx="0" cy="0" r="1" gradientUnits="userSpaceOnUse" gradientTransform="translate(26 17.9688) rotate(101.31) scale(25.6544 32.8585)">
<stop offset="0.787821" stop-color="#F59639" stop-opacity="0"/>
<stop offset="0.972509" stop-color="#FF7DCE"/>
</radialGradient>
<radialGradient id="paint3_radial_7_161" cx="0" cy="0" r="1" gradientUnits="userSpaceOnUse" gradientTransform="translate(28.875 20.125) rotate(135) scale(58.955)">
<stop offset="0.314853" stop-opacity="0"/>
<stop offset="1"/>
</radialGradient>
<radialGradient id="paint4_radial_7_161" cx="0" cy="0" r="1" gradientUnits="userSpaceOnUse" gradientTransform="translate(26 24.4375) rotate(77.692) scale(40.4612)">
<stop offset="0.507903" stop-color="#7D6133" stop-opacity="0"/>
<stop offset="1" stop-color="#715B32"/>
</radialGradient>
<radialGradient id="paint5_radial_7_161" cx="0" cy="0" r="1" gradientUnits="userSpaceOnUse" gradientTransform="translate(26.7187 23.7188) rotate(55.7131) scale(19.1382 13.8723)">
<stop stop-color="#FFB849"/>
<stop offset="1" stop-color="#FFB847" stop-opacity="0"/>
</radialGradient>
<radialGradient id="paint6_radial_7_161" cx="0" cy="0" r="1" gradientUnits="userSpaceOnUse" gradientTransform="translate(32.4687 25.875) rotate(9.86581) scale(16.7794)">
<stop stop-color="#FFA64B"/>
<stop offset="0.900412" stop-color="#FFAE46" stop-opacity="0"/>
</radialGradient>
<radialGradient id="paint7_radial_7_161" cx="0" cy="0" r="1" gradientUnits="userSpaceOnUse" gradientTransform="translate(28.1562 21.5625) rotate(43.9708) scale(84.8886)">
<stop offset="0.185425" stop-opacity="0"/>
<stop offset="1" stop-opacity="0.4"/>
</radialGradient>
<radialGradient id="paint8_radial_7_161" cx="0" cy="0" r="1" gradientUnits="userSpaceOnUse" gradientTransform="translate(20.0903 12.9375) rotate(138.013) scale(13.3228 6.85735)">
<stop stop-color="#392108"/>
<stop offset="1" stop-color="#C87928" stop-opacity="0"/>
</radialGradient>
<linearGradient id="paint9_linear_7_161" x1="34.8462" y1="10.0625" x2="33.1875" y2="18.6875" gradientUnits="userSpaceOnUse">
<stop stop-color="#553B3E"/>
<stop offset="1" stop-color="#3D2432"/>
</linearGradient>
<radialGradient id="paint10_radial_7_161" cx="0" cy="0" r="1" gradientUnits="userSpaceOnUse" gradientTransform="translate(34.7847 12.7778) rotate(135) scale(10.3905 5.86563)">
<stop stop-color="#392108"/>
<stop offset="1" stop-color="#C87928" stop-opacity="0"/>
</radialGradient>
<linearGradient id="paint11_linear_7_161" x1="34.8462" y1="10.0625" x2="33.1875" y2="18.6875" gradientUnits="userSpaceOnUse">
<stop stop-color="#553B3E"/>
<stop offset="1" stop-color="#3D2432"/>
</linearGradient>
<radialGradient id="paint12_radial_7_161" cx="0" cy="0" r="1" gradientUnits="userSpaceOnUse" gradientTransform="translate(26 41.8125) rotate(-90) scale(15.8125 31.625)">
<stop stop-color="#F70A8D"/>
<stop offset="1" stop-color="#89029C"/>
</radialGradient>
<linearGradient id="paint13_linear_7_161" x1="26" y1="23" x2="26" y2="25" gradientUnits="userSpaceOnUse">
<stop stop-color="#ECCDFF"/>
<stop offset="1" stop-color="white"/>
</linearGradient>
</defs>
</svg>
